# xmcd CD database file
#
# Track frame offsets:
#	150
#	21726
#	56110
#	94327
#	129996
#	151949
#	174790
#	200084
#	231450
#	275489
#	290274
#
# Disc length: 4428 seconds
#
# Revision: 1
# Processed by: cddbd v1.5.2PL0 Copyright (c) Steve Scherf et al.
# Submitted via: CDex 1.51
#
DISCID=a1114a0b
DTITLE=Alberto Marsico and Organ Logistics - The "B" Side of the Fish
DYEAR=2009
DGENRE=Jazz
TTITLE0=The "B" Side of the Fish
TTITLE1=Yes or No
TTITLE2=Joyful Pray
TTITLE3=Upstairs
TTITLE4=Cereal Killer
TTITLE5=Stelle e Stelline
TTITLE6=Majority
TTITLE7=Mr. M.B. Blues
TTITLE8=Lou
TTITLE9=Up There
TTITLE10=Out of Sight
EXTD=YEAR: 2009
EXTT0=
EXTT1=
EXTT2=
EXTT3=
EXTT4=
EXTT5=
EXTT6=
EXTT7=
EXTT8=
EXTT9=
EXTT10=
PLAYORDER=
